<?xml version="1.0" standalone="no"?>
<!DOCTYPE svg PUBLIC "-//W3C//DTD SVG 20010904//EN"
 "http://www.w3.org/TR/2001/REC-SVG-20010904/DTD/svg10.dtd">
<svg version="1.0" xmlns="http://www.w3.org/2000/svg"
 width="700.000000pt" height="700.000000pt" viewBox="0 0 700.000000 700.000000"
 preserveAspectRatio="xMidYMid meet">
<metadata>
Created by potrace 1.14, written by Peter Selinger 2001-2017
</metadata>
<g transform="translate(0.000000,700.000000) scale(0.100000,-0.100000)"
fill="#000000" stroke="none">
<path d="M3474 6867 c-12 -17 -35 -54 -50 -80 -16 -27 -38 -64 -49 -82 -200
-331 -515 -853 -530 -879 -30 -51 -201 -336 -332 -551 -63 -104 -123 -203
-133 -220 -9 -16 -106 -177 -214 -357 -109 -180 -195 -332 -191 -338 3 -5 23
-19 43 -30 20 -11 44 -25 52 -30 31 -20 283 -170 287 -170 2 0 43 -24 91 -53
81 -50 302 -181 364 -217 15 -8 115 -67 223 -130 l195 -115 -2 -802 c-2 -442
-5 -803 -9 -803 -3 0 -9 4 -15 9 -5 5 -26 19 -46 30 -74 41 -105 59 -238 138
-74 44 -200 118 -280 165 -80 47 -273 161 -430 253 -157 92 -298 175 -315 185
-65 38 -382 224 -410 241 -16 10 -51 30 -77 44 l-48 25 108 -152 c60 -84 157
-223 217 -308 60 -85 113 -159 118 -165 4 -5 63 -88 130 -183 67 -94 217 -305
332 -468 116 -162 218 -307 227 -322 9 -15 21 -31 25 -37 5 -5 24 -32 43 -60
19 -27 38 -54 43 -60 9 -11 217 -305 287 -406 24 -35 48 -68 53 -74 4 -5 116
-163 248 -350 133 -187 256 -362 275 -388 l35 -48 104 148 c57 81 116 166 132
188 33 44 521 736 564 800 16 22 124 177 242 344 118 166 220 312 228 323 8
12 32 46 54 77 23 31 83 117 135 191 52 74 98 140 103 145 4 6 54 76 110 156
321 457 376 535 414 587 23 31 40 58 38 60 -2 2 -59 -29 -127 -70 -67 -40
-131 -77 -141 -83 -13 -8 -462 -274 -552 -328 -10 -7 -46 -28 -80 -48 -33 -20
-172 -103 -310 -184 -137 -81 -267 -158 -287 -171 -21 -13 -40 -24 -43 -24 -3
0 -18 -9 -33 -19 -15 -10 -83 -52 -152 -93 l-125 -73 0 802 c0 514 4 806 10
812 8 8 353 213 480 286 22 13 139 81 260 153 121 72 283 167 361 212 129 76
158 101 135 120 -5 4 -162 262 -196 322 -5 10 -50 84 -100 165 -49 81 -94 155
-100 165 -5 10 -32 54 -60 99 -27 45 -59 98 -71 118 -12 20 -58 96 -102 169
-45 73 -82 137 -82 143 0 5 -4 9 -10 9 -5 0 -10 4 -10 8 0 5 -112 195 -250
422 -137 227 -250 416 -250 421 0 4 -3 9 -7 11 -5 2 -16 17 -25 33 -10 17 -66
110 -125 207 -60 98 -112 187 -118 198 -13 27 -16 26 -41 -13z"/>
</g>
</svg>
